<svg xmlns="http://www.w3.org/2000/svg" viewBox="0 0 320 64" fill="none" role="img" aria-label="ISSA Capital">
  <title>ISSA Capital</title>
  <!--
    Logo ISSA Capital — version principale (fond clair, encre sur crème)
    Monogramme "IC" à gauche + wordmark "ISSA CAPITAL" à droite
    Palette : ink-950 #0A0A0A sur fond transparent (usage sur parchment-100 #F5F0E8)
    Direction A validée par Thomas (post-deploy 2026-04-07)
    Déclinaisons : logo.svg (fond clair), logo-inverse.svg (fond sombre)
  -->

  <!-- ===== MONOGRAMME IC — zone gauche ===== -->

  <!-- Lettre I — fût + empattements serif -->
  <rect x="4" y="12" width="3.5" height="40" fill="#0A0A0A"/>
  <!-- Empattement haut I -->
  <rect x="1" y="12" width="9.5" height="3" fill="#0A0A0A"/>
  <!-- Empattement bas I -->
  <rect x="1" y="49" width="9.5" height="3" fill="#0A0A0A"/>

  <!-- Lettre C — courbe ouverte serif -->
  <!-- Barre supérieure C -->
  <rect x="16" y="12" width="18" height="4" fill="#0A0A0A"/>
  <!-- Fût gauche C -->
  <rect x="16" y="12" width="3.5" height="40" fill="#0A0A0A"/>
  <!-- Barre inférieure C -->
  <rect x="16" y="48" width="18" height="4" fill="#0A0A0A"/>
  <!-- Encoche supérieure — ouverture du C -->
  <rect x="28" y="12" width="6" height="4" fill="transparent"/>
  <!-- Encoche inférieure — ouverture du C -->
  <rect x="28" y="48" width="6" height="4" fill="transparent"/>
  <!-- Corps intérieur C creux -->
  <rect x="19.5" y="16" width="14.5" height="32" fill="transparent"/>

  <!-- Séparateur vertical ocre levantin -->
  <rect x="42" y="12" width="1" height="40" fill="#C4935A"/>

  <!-- ===== WORDMARK "ISSA" — serif condensé majuscules ===== -->

  <!-- Lettre I du wordmark -->
  <rect x="50" y="16" width="2.5" height="32" fill="#0A0A0A"/>
  <rect x="46.5" y="16" width="9.5" height="2" fill="#0A0A0A"/>
  <rect x="46.5" y="46" width="9.5" height="2" fill="#0A0A0A"/>

  <!-- Lettre S (première) -->
  <path d="M64 18 Q64 16 66 16 L74 16 Q76 16 76 18 L76 19.5 Q76 21 74 21 L66 21 Q64 21 64 23 L64 31 Q64 33 66 33 L74 33 Q76 33 76 35 L76 45.5 Q76 48 74 48 L62 48 Q60 48 60 46 L60 44.5" stroke="#0A0A0A" stroke-width="2.5" fill="none" stroke-linecap="square"/>

  <!-- Lettre S (seconde) -->
  <path d="M84 18 Q84 16 86 16 L94 16 Q96 16 96 18 L96 19.5 Q96 21 94 21 L86 21 Q84 21 84 23 L84 31 Q84 33 86 33 L94 33 Q96 33 96 35 L96 45.5 Q96 48 94 48 L82 48 Q80 48 80 46 L80 44.5" stroke="#0A0A0A" stroke-width="2.5" fill="none" stroke-linecap="square"/>

  <!-- Lettre A -->
  <path d="M100 48 L108 16 L116 48" stroke="#0A0A0A" stroke-width="2.5" fill="none" stroke-linecap="square" stroke-linejoin="miter"/>
  <line x1="102.5" y1="37" x2="113.5" y2="37" stroke="#0A0A0A" stroke-width="2"/>

  <!-- ===== WORDMARK "CAPITAL" — corps réduit sous ISSA ===== -->

  <!-- C -->
  <path d="M122 33 Q122 20 130 20 L138 20 L138 23 L130 23 Q125 23 125 33 L125 37 Q125 47 130 47 L138 47 L138 50 L130 50 Q122 50 122 37 Z" fill="#0A0A0A"/>

  <!-- A -->
  <path d="M142 50 L148 20 L154 50" stroke="#0A0A0A" stroke-width="2" fill="none" stroke-linecap="square"/>
  <line x1="144" y1="40" x2="152" y2="40" stroke="#0A0A0A" stroke-width="1.5"/>

  <!-- P -->
  <rect x="158" y="20" width="2.5" height="30" fill="#0A0A0A"/>
  <path d="M160.5 20 L167 20 Q173 20 173 29 Q173 38 167 38 L160.5 38" stroke="#0A0A0A" stroke-width="2.5" fill="none" stroke-linecap="square"/>

  <!-- I -->
  <rect x="178" y="20" width="2.5" height="30" fill="#0A0A0A"/>
  <rect x="174.5" y="20" width="9.5" height="2" fill="#0A0A0A"/>
  <rect x="174.5" y="48" width="9.5" height="2" fill="#0A0A0A"/>

  <!-- T -->
  <rect x="188" y="20" width="14" height="2" fill="#0A0A0A"/>
  <rect x="194.5" y="22" width="2.5" height="28" fill="#0A0A0A"/>

  <!-- A -->
  <path d="M212 50 L218 20 L224 50" stroke="#0A0A0A" stroke-width="2" fill="none" stroke-linecap="square"/>
  <line x1="214" y1="40" x2="222" y2="40" stroke="#0A0A0A" stroke-width="1.5"/>

  <!-- L -->
  <rect x="228" y="20" width="2.5" height="30" fill="#0A0A0A"/>
  <rect x="228" y="48" width="12" height="2" fill="#0A0A0A"/>

  <!-- Filet accent ocre sous "CAPITAL" -->
  <rect x="122" y="54" width="118" height="1" fill="#C4935A"/>
</svg>
