<svg xmlns="http://www.w3.org/2000/svg" viewBox="0 0 320 64" fill="none" role="img" aria-label="ISSA Capital">
  <title>ISSA Capital</title>
  <!--
    Logo ISSA Capital — version inverse (fond sombre, crème sur ink-950)
    Monogramme "IC" à gauche + wordmark "ISSA CAPITAL" à droite
    Palette : parchment-100 #F5F0E8 sur fond transparent (usage sur ink-950 #0A0A0A)
    Direction A validée par Thomas (post-deploy 2026-04-07)
  -->

  <!-- ===== MONOGRAMME IC — zone gauche ===== -->

  <!-- Lettre I — fût + empattements serif -->
  <rect x="4" y="12" width="3.5" height="40" fill="#F5F0E8"/>
  <!-- Empattement haut I -->
  <rect x="1" y="12" width="9.5" height="3" fill="#F5F0E8"/>
  <!-- Empattement bas I -->
  <rect x="1" y="49" width="9.5" height="3" fill="#F5F0E8"/>

  <!-- Lettre C — courbe ouverte serif -->
  <!-- Barre supérieure C -->
  <rect x="16" y="12" width="18" height="4" fill="#F5F0E8"/>
  <!-- Fût gauche C -->
  <rect x="16" y="12" width="3.5" height="40" fill="#F5F0E8"/>
  <!-- Barre inférieure C -->
  <rect x="16" y="48" width="18" height="4" fill="#F5F0E8"/>

  <!-- Séparateur vertical ocre levantin -->
  <rect x="42" y="12" width="1" height="40" fill="#C4935A"/>

  <!-- ===== WORDMARK "ISSA" — glyphes crème ===== -->

  <!-- Lettre I du wordmark -->
  <rect x="50" y="16" width="2.5" height="32" fill="#F5F0E8"/>
  <rect x="46.5" y="16" width="9.5" height="2" fill="#F5F0E8"/>
  <rect x="46.5" y="46" width="9.5" height="2" fill="#F5F0E8"/>

  <!-- Lettre S (première) — block serif fill, cohérent avec I/C monogramme -->
  <rect x="60" y="16" width="16" height="3" fill="#F5F0E8"/>
  <rect x="60" y="16" width="3" height="14" fill="#F5F0E8"/>
  <rect x="60" y="30" width="16" height="3" fill="#F5F0E8"/>
  <rect x="73" y="33" width="3" height="14" fill="#F5F0E8"/>
  <rect x="60" y="45" width="16" height="3" fill="#F5F0E8"/>

  <!-- Lettre S (seconde) — block serif fill -->
  <rect x="80" y="16" width="16" height="3" fill="#F5F0E8"/>
  <rect x="80" y="16" width="3" height="14" fill="#F5F0E8"/>
  <rect x="80" y="30" width="16" height="3" fill="#F5F0E8"/>
  <rect x="93" y="33" width="3" height="14" fill="#F5F0E8"/>
  <rect x="80" y="45" width="16" height="3" fill="#F5F0E8"/>

  <!-- Lettre A -->
  <path d="M100 48 L108 16 L116 48" stroke="#F5F0E8" stroke-width="2.5" fill="none" stroke-linecap="square" stroke-linejoin="miter"/>
  <line x1="102.5" y1="37" x2="113.5" y2="37" stroke="#F5F0E8" stroke-width="2"/>

  <!-- ===== WORDMARK "CAPITAL" — glyphes crème ===== -->

  <!-- C -->
  <path d="M122 33 Q122 20 130 20 L138 20 L138 23 L130 23 Q125 23 125 33 L125 37 Q125 47 130 47 L138 47 L138 50 L130 50 Q122 50 122 37 Z" fill="#F5F0E8"/>

  <!-- A -->
  <path d="M142 50 L148 20 L154 50" stroke="#F5F0E8" stroke-width="2" fill="none" stroke-linecap="square"/>
  <line x1="144" y1="40" x2="152" y2="40" stroke="#F5F0E8" stroke-width="1.5"/>

  <!-- P -->
  <rect x="158" y="20" width="2.5" height="30" fill="#F5F0E8"/>
  <path d="M160.5 20 L167 20 Q173 20 173 29 Q173 38 167 38 L160.5 38" stroke="#F5F0E8" stroke-width="2.5" fill="none" stroke-linecap="square"/>

  <!-- I -->
  <rect x="178" y="20" width="2.5" height="30" fill="#F5F0E8"/>
  <rect x="174.5" y="20" width="9.5" height="2" fill="#F5F0E8"/>
  <rect x="174.5" y="48" width="9.5" height="2" fill="#F5F0E8"/>

  <!-- T -->
  <rect x="188" y="20" width="14" height="2" fill="#F5F0E8"/>
  <rect x="194.5" y="22" width="2.5" height="28" fill="#F5F0E8"/>

  <!-- A -->
  <path d="M212 50 L218 20 L224 50" stroke="#F5F0E8" stroke-width="2" fill="none" stroke-linecap="square"/>
  <line x1="214" y1="40" x2="222" y2="40" stroke="#F5F0E8" stroke-width="1.5"/>

  <!-- L -->
  <rect x="228" y="20" width="2.5" height="30" fill="#F5F0E8"/>
  <rect x="228" y="48" width="12" height="2" fill="#F5F0E8"/>

  <!-- Filet accent ocre sous "CAPITAL" -->
  <rect x="122" y="54" width="118" height="1" fill="#C4935A"/>
</svg>
