<svg xmlns="http://www.w3.org/2000/svg" viewBox="0 0 512 512" fill="none" role="img" aria-label="ISSA Capital">
  <title>ISSA Capital</title>
  <!--
    Favicon vectoriel ISSA Capital — file-based icon Next.js App Router
    Direction A — Session 5 (2026-04-08) : sérif classique, C en Bézier cubique
    Corrige l'ancien favicon rectangulaire "aspect Paint" (retour Thomas P1)
    Fond : ink-950 #0A0A0A | Glyphes : parchment-100 #F5F0E8 | Accent : levant-500 #C4935A
    viewBox 512×512 — Next.js re-rasterise automatiquement aux tailles demandées
  -->

  <!-- Fond -->
  <rect width="512" height="512" fill="#0A0A0A"/>

  <!-- Lettre I — sérif classique (path unique : sérif haut + fût + sérif bas) -->
  <path d="
    M 72,112 L 168,112 L 168,140 L 140,140
    L 140,372 L 168,372 L 168,400
    L 72,400 L 72,372 L 100,372
    L 100,140 L 72,140 Z
  " fill="#F5F0E8"/>

  <!-- Lettre C — arc Bézier cubique (demi-anneau + sérifs horizontaux) -->
  <path d="
    M 440,112
    L 298,112
    C 378,112 154,176 154,256
    C 154,336 218,400 298,400
    L 440,400
    L 440,372
    L 298,372
    C 249,372 210,305 210,256
    C 210,207 249,140 298,140
    L 440,140
    Z
  " fill="#F5F0E8"/>

  <!-- Filet ocre levantin — signature graphique -->
  <rect x="72" y="436" width="368" height="16" fill="#C4935A"/>
</svg>
